<?xml version="1.0" encoding="iso-8859-1"?>
<!-- Generator: Adobe Illustrator 19.0.0, SVG Export Plug-In . SVG Version: 6.00 Build 0)  -->
<svg version="1.1" id="Capa_1" xmlns="http://www.w3.org/2000/svg" xmlns:xlink="http://www.w3.org/1999/xlink" x="0px" y="0px"
	 viewBox="0 0 512 512" style="enable-background:new 0 0 512 512;" xml:space="preserve">
<path style="fill:#FCF8F2;" d="M293.507,512V216.198c0-20.483-16.128-37.718-36.606-38.202
	c-21.094-0.498-38.413,16.515-38.413,37.499v39.028c0,49.149-39.844,88.993-88.993,88.993l0,0
	c-49.149,0-88.993-39.844-88.993-88.993v-37.376c0-57.126,21.947-112.313,62.07-152.976C143.393,22.803,197.943,0,255.998,0
	c57.561,0,111.675,22.415,152.378,63.116c40.701,40.701,63.116,94.816,63.116,152.378V512"/>
<g>
	<path style="fill:#E5E1DC;" d="M76.534,254.522v-37.376c0-57.126,21.947-112.313,62.07-152.976
		C175.17,27.112,222.759,4.967,274.012,0.752C268.053,0.262,262.046,0,255.998,0c-58.055,0-112.605,22.803-153.424,64.171
		c-40.122,40.662-62.071,95.85-62.071,152.976v37.376c0,49.149,39.844,88.993,88.993,88.993l0,0c6.173,0,12.197-0.63,18.015-1.827
		C107,333.358,76.534,297.498,76.534,254.522z"/>
	<path style="fill:#E5E1DC;" d="M292.933,177.995c-6.894-0.163-13.379,1.554-18.995,4.66c11.708,6.541,19.569,19.247,19.569,33.542
		v295.802h36.03V216.197C329.538,195.715,313.41,178.48,292.933,177.995z"/>
</g>
<g>
	<path style="fill:#FF525D;" d="M227.5,191.14c0,0.01,0,0.01,0,0.01c-5.619,6.559-9.003,15.061-9.003,24.345v22.497
		c-52.921-10.632-107.638,15.541-139.931,35.542c-17.901,11.102-28.91,20.303-28.91,20.303c-5.859-11.844-9.149-25.202-9.149-39.312
		v-37.38c0-57.13,21.954-112.317,62.08-152.976c7.938,4.011,15.708,8.815,23.259,14.162
		C182.799,118.637,226.821,190.043,227.5,191.14z"/>
	<path style="fill:#FF525D;" d="M465.773,165.802c-59.354-6.81-110.802,13.776-141.654,30.675
		c-19.353,10.58-30.601,19.719-30.601,19.719c0-13.682-7.196-25.902-18.068-32.659c-0.01-0.094-0.052-0.648-0.104-1.608
		c-0.836-13.88-4.105-113.549,68.952-163.138c23.573,10.59,45.265,25.494,64.085,44.325
		C437.094,91.826,456.708,127.232,465.773,165.802z"/>
	<path style="fill:#FF525D;" d="M471.497,344.043v167.953H293.518V428.63c0,0,13.619-11.687,36.022-26.455
		C362.773,380.253,415.349,351.531,471.497,344.043z"/>
</g>
<g>
	<path style="fill:#EF4152;" d="M76.529,254.526c0,6.528,0.7,12.888,2.037,19.008c-17.901,11.102-28.91,20.303-28.91,20.303
		c-5.859-11.844-9.149-25.202-9.149-39.312v-37.38c0-57.13,21.954-112.317,62.08-152.976c7.938,4.011,15.708,8.815,23.259,14.162
		c-32.001,38.863-49.317,88.076-49.317,138.814V254.526z"/>
	<path style="fill:#EF4152;" d="M293.518,216.196c0-13.682-7.196-25.902-18.068-32.659c-0.01-0.094-0.052-0.648-0.104-1.608
		c5.285-2.653,11.269-4.084,17.588-3.937c13.316,0.324,24.794,7.718,31.186,18.486C304.766,207.057,293.518,216.196,293.518,216.196
		z"/>
	<path style="fill:#EF4152;" d="M329.54,402.175v109.821h-36.022V428.63C293.518,428.63,307.137,416.943,329.54,402.175z"/>
</g>
<g>
	<path style="fill:#313344;" d="M326.541,284.787c-4.327,0-7.833-3.507-7.833-7.833v-16.285c0-4.326,3.506-7.833,7.833-7.833
		s7.833,3.507,7.833,7.833v16.285C334.374,281.281,330.867,284.787,326.541,284.787z"/>
	<path style="fill:#313344;" d="M447.602,284.787c-4.327,0-7.833-3.507-7.833-7.833v-16.285c0-4.326,3.506-7.833,7.833-7.833
		s7.833,3.507,7.833,7.833v16.285C455.435,281.281,451.928,284.787,447.602,284.787z"/>
</g>
<path style="fill:#FF525D;" d="M387.071,325.463c-10.903,0-21.155-4.246-28.865-11.956c-3.059-3.059-3.059-8.019,0.001-11.077
	c3.059-3.059,8.019-3.059,11.077,0c4.751,4.751,11.068,7.367,17.785,7.367c6.718,0,13.034-2.616,17.785-7.367
	c3.06-3.059,8.02-3.06,11.077,0c3.06,3.059,3.06,8.018,0.001,11.077C408.226,321.216,397.974,325.463,387.071,325.463z"/>
<g>
	<path style="fill:#FF6E7C;" d="M372.649,106.551c23.359,23.359,29.479,55.112,42.295,42.295
		c12.816-12.816,4.27-42.142-19.09-65.501c-23.359-23.359-52.685-31.906-65.501-19.09
		C317.538,77.072,349.291,83.192,372.649,106.551z"/>
	<path style="fill:#FF6E7C;" d="M447.471,433.813c0,27.685-6.663,50.13-14.882,50.13c-8.219,0-9.66-22.444-9.66-50.13
		s1.44-50.13,9.66-50.13C440.809,383.683,447.471,406.127,447.471,433.813z"/>
</g>
<g>
</g>
<g>
</g>
<g>
</g>
<g>
</g>
<g>
</g>
<g>
</g>
<g>
</g>
<g>
</g>
<g>
</g>
<g>
</g>
<g>
</g>
<g>
</g>
<g>
</g>
<g>
</g>
<g>
</g>
</svg>
